<svg width="194" height="127" viewBox="0 0 194 127" fill="none" xmlns="http://www.w3.org/2000/svg">
<path d="M93.7095 0V62.0043C105.436 73.5764 123.259 106.124 139.441 109.13C178.969 116.451 190.973 64.7738 160.079 51.2265C140.23 42.5098 119.933 54.6187 116.778 75.7019L101.243 65.8387C115.136 31.3886 151.956 23.1657 177.264 41.9087L178.074 33.8361H194V124.009H178.074V115.957C161.465 127.615 144.217 130.9 125.498 121.647C105.692 111.857 84.5844 72.5029 67.443 56.3792C44.4597 34.7378 6.87213 59.5997 18.1292 90.1509C29.3863 120.702 74.1162 114.09 76.9944 82.1428L93.7095 100.65V124.009H77.7833V115.957C52.5828 136.01 13.6307 127.444 2.67204 96.141C-11.1008 56.8301 31.2713 24.7648 63.4348 34.6734C69.4309 36.5207 77.8046 41.8872 77.8046 41.8872V0.0214701H93.7308L93.7095 0Z" fill="black" fill-opacity="0.8"/>
</svg>
